<svg xmlns="http://www.w3.org/2000/svg" width="3000" height="2000" viewBox="0 0 3000 2000">
  <metadata><?xpacket begin="﻿" id="W5M0MpCehiHzreSzNTczkc9d"?>
<x:xmpmeta xmlns:x="adobe:ns:meta/" x:xmptk="Adobe XMP Core 5.6-c138 79.159824, 2016/09/14-01:09:01        ">
   <rdf:RDF xmlns:rdf="http://www.w3.org/1999/02/22-rdf-syntax-ns#">
      <rdf:Description rdf:about=""/>
   </rdf:RDF>
</x:xmpmeta>
                                                                                                    
                                                                                                    
                                                                                                    
                                                                                                    
                                                                                                    
                                                                                                    
                                                                                                    
                                                                                                    
                                                                                                    
                                                                                                    
                                                                                                    
                                                                                                    
                                                                                                    
                                                                                                    
                                                                                                    
                                                                                                    
                                                                                                    
                                                                                                    
                                                                                                    
                                                                                                    
                           
<?xpacket end="w"?></metadata>
<defs>
    <style>
      .cls-1 {
        fill: #2d313c;
      }

      .cls-2, .cls-3 {
        fill: #fff;
        fill-rule: evenodd;
      }

      .cls-2 {
        opacity: 0.1;
      }

      .cls-3 {
        opacity: 0.05;
      }
    </style>
  </defs>
  <rect class="cls-1" x="-38" y="-18" width="3066" height="2049"/>
  <path id="Color_Fill_1" data-name="Color Fill 1" class="cls-2" d="M-53,852c79.185,64.07,227.883-59.4,288-25,859.29,491.76,767.66-18.191,1006,72,309.84,117.25,403.57-203.747,770-79,254.89,86.776,741.48,353.2,989,293,107.71-26.2,0-1300,0-1300H-2C-1.235-186.419-61.021,812.591-53,852Z"/>
  <path id="Color_Fill_2" data-name="Color Fill 2" class="cls-3" d="M-2,1160c457.748-14.67,551.1-278.455,820-261,253.51,16.456,434.71,181.55,689,165,328.14-21.36,413.1-72.012,800-84,597.49-18.513,599.28,61.96,694,102,172.94,73.11,0-1269,0-1269L-5-181C-4.234-180.419-10.021,1120.59-2,1160Z"/>
</svg>
